<svg width="278" height="122" viewBox="0 0 278 122" fill="none" xmlns="http://www.w3.org/2000/svg">
<g clip-path="url(#clip0_512_5511)">
<path d="M40.7581 33.065C40.3837 32.6423 39.9558 32.2724 39.4744 31.9024C35.6768 28.626 30.8628 26.8293 25.1395 26.4594V27.3049C25.1395 28.3089 24.2837 29.1545 23.2674 29.1545H22.1977C21.1814 29.1545 20.3256 28.3089 20.3256 27.3049V26.5122C17.0093 26.7764 14.014 27.5691 11.2326 28.8902C7.75582 30.5285 4.97442 32.8537 2.99535 35.8659C1.01628 38.8781 0 42.2602 0 46.0122C0 47.8089 0.213954 49.4472 0.641861 51.0854C1.28372 53.622 2.51395 55.9472 4.27907 58.0081C6.63256 60.7561 9.57442 62.6585 13.2651 63.6098C14.014 63.8211 14.8163 63.9797 15.6721 64.0854C19.5767 64.6138 22.7326 64.4553 25.193 63.6098L17.7047 74.8659L18.0256 74.9187L36.4256 52.4065C39.5279 48.6545 41.2395 44.9024 41.614 41.1504C41.9349 38.2439 41.6674 35.5488 40.7581 33.065ZM30.7023 53.3577C28.6163 55.3659 26.0488 56.3171 23 56.3171C19.9512 56.3171 17.3837 55.313 15.2442 53.3049C13.3721 51.561 12.3023 49.4472 12.0884 47.0163C12.0349 46.6463 12.0349 46.3293 12.0349 45.9594C12.0349 42.6829 13.1047 39.935 15.1907 37.874C16.6884 36.3943 18.3465 35.4431 20.2721 35.0203C20.2721 34.9146 20.2186 34.7561 20.2186 34.6504V33.5935C20.2186 32.5894 21.0744 31.7439 22.0907 31.7439H23.1605C24.1767 31.7439 25.0326 32.5894 25.0326 33.5935V34.6504C25.0326 34.7561 25.0326 34.8089 25.0326 34.9146C26.6907 35.1789 28.1349 35.813 29.4186 36.8171C29.8465 37.1341 30.2209 37.5041 30.6488 37.874C32.7349 39.9878 33.7512 42.6829 33.7512 45.9594C33.8581 48.9715 32.8419 51.4024 30.7023 53.3577Z" fill="url(#paint0_linear_512_5511)"/>
<path d="M45.9999 46.0122C45.9999 49.7642 44.6627 53.6748 41.9883 57.7439L25.9418 82H12.8906L17.5976 74.8659L17.9185 74.9187L36.4255 52.4065C39.5278 48.6545 41.2395 44.9025 41.6139 41.1504C41.9348 38.2439 41.6139 35.5488 40.7581 33.0651C44.2883 36.5529 45.9999 40.8862 45.9999 46.0122Z" fill="url(#paint1_linear_512_5511)"/>
<path d="M45.9999 46.0122C45.9999 49.7642 44.6627 53.6748 41.9883 57.7439L25.9418 82H12.8906L17.5976 74.8659L17.9185 74.9187L36.4255 52.4065C39.5278 48.6545 41.2395 44.9025 41.6139 41.1504C41.9348 38.2439 41.6139 35.5488 40.7581 33.0651C44.2883 36.5529 45.9999 40.8862 45.9999 46.0122Z" fill="url(#paint2_linear_512_5511)"/>
<path d="M14.9768 39.7236H12.3024C8.77216 39.7236 5.88379 36.8699 5.88379 33.3821V23.3415C5.88379 19.8537 8.77216 17 12.3024 17H14.9768C18.507 17 21.3954 19.8537 21.3954 23.3415V33.3821C21.3954 36.8699 18.507 39.7236 14.9768 39.7236Z" fill="white"/>
<path d="M13.6396 38.1382C10.3768 38.1382 7.75586 35.5488 7.75586 32.3252V24.9268C7.75586 21.7033 10.3768 19.1138 13.6396 19.1138C16.9024 19.1138 19.5233 21.7033 19.5233 24.9268V32.3252C19.5233 35.5488 16.9024 38.1382 13.6396 38.1382ZM13.6396 19.6423C10.6977 19.6423 8.29074 22.0203 8.29074 24.9268V32.3252C8.29074 35.2317 10.6977 37.6098 13.6396 37.6098C16.5814 37.6098 18.9884 35.2317 18.9884 32.3252V24.9268C18.9884 22.0203 16.5814 19.6423 13.6396 19.6423Z" fill="black" stroke="url(#paint3_linear_512_5511)" stroke-miterlimit="10"/>
<path d="M13.6395 35.2317C12.1418 35.2317 10.9651 34.0691 10.9651 32.5894V26.7764C10.9651 25.2968 12.1418 24.1342 13.6395 24.1342C15.1372 24.1342 16.3139 25.2968 16.3139 26.7764V32.5894C16.3139 34.0691 15.1372 35.2317 13.6395 35.2317Z" fill="url(#paint4_linear_512_5511)"/>
<path d="M11.7675 28.0976C12.9491 28.0976 13.907 27.1512 13.907 25.9838C13.907 24.8163 12.9491 23.8699 11.7675 23.8699C10.5858 23.8699 9.62793 24.8163 9.62793 25.9838C9.62793 27.1512 10.5858 28.0976 11.7675 28.0976Z" fill="white"/>
<path d="M33.6978 39.7236H31.0233C27.4931 39.7236 24.6047 36.8699 24.6047 33.3821V23.3415C24.6047 19.8537 27.4931 17 31.0233 17H33.6978C37.228 17 40.1164 19.8537 40.1164 23.3415V33.3821C40.1164 36.8699 37.228 39.7236 33.6978 39.7236Z" fill="white"/>
<path d="M32.3605 38.1382C29.0977 38.1382 26.4768 35.5488 26.4768 32.3252V24.9268C26.4768 21.7033 29.0977 19.1138 32.3605 19.1138C35.6233 19.1138 38.2442 21.7033 38.2442 24.9268V32.3252C38.2442 35.5488 35.6233 38.1382 32.3605 38.1382ZM32.3605 19.6423C29.4187 19.6423 27.0117 22.0203 27.0117 24.9268V32.3252C27.0117 35.2317 29.4187 37.6098 32.3605 37.6098C35.3024 37.6098 37.7094 35.2317 37.7094 32.3252V24.9268C37.7094 22.0203 35.3024 19.6423 32.3605 19.6423Z" fill="black" stroke="url(#paint5_linear_512_5511)" stroke-miterlimit="10"/>
<path d="M32.3605 35.2317C30.8628 35.2317 29.686 34.0691 29.686 32.5894V26.7764C29.686 25.2968 30.8628 24.1342 32.3605 24.1342C33.8581 24.1342 35.0349 25.2968 35.0349 26.7764V32.5894C35.0349 34.0691 33.8581 35.2317 32.3605 35.2317Z" fill="url(#paint6_linear_512_5511)"/>
<path d="M30.4884 28.0976C31.67 28.0976 32.6279 27.1512 32.6279 25.9838C32.6279 24.8163 31.67 23.8699 30.4884 23.8699C29.3068 23.8699 28.3489 24.8163 28.3489 25.9838C28.3489 27.1512 29.3068 28.0976 30.4884 28.0976Z" fill="white"/>
<path d="M30.5419 44.0569C30.3814 44.4797 30.221 44.9025 30.0605 45.2724C29.8466 45.6951 29.6326 46.0651 29.3652 46.435C27.7605 48.7602 25.1396 50.2399 22.1977 50.2399C19.8977 50.2399 17.7582 49.2886 16.1535 47.7033C15.6721 47.2277 15.1907 46.6464 14.8163 46.0651C14.4419 45.4838 14.1745 44.9025 13.907 44.2683C13.4256 42.8943 14.3884 41.4147 15.7791 41.4147L22.1977 41.309H28.6163C29.9535 41.309 30.9698 42.7358 30.5419 44.0569Z" fill="#C1272D"/>
<path d="M29.9534 44.5325C29.7394 44.9024 29.5255 45.2723 29.258 45.6423C27.6534 47.8089 25.0859 49.2358 22.1441 49.2358C19.8441 49.2358 17.7045 48.3374 16.1534 46.8577C15.672 46.3821 15.1906 45.8536 14.8162 45.3252C16.3138 43.5813 19.3092 42.3658 22.7859 42.3658C25.7278 42.3658 28.2952 43.2114 29.9534 44.5325Z" fill="#F15A24"/>
</g>
<path d="M80.728 82L77.4 71.12H60.76L57.432 82H47L63.128 36.112H74.968L91.16 82H80.728ZM75.096 62.992L71.768 52.368C71.5547 51.6427 71.2773 50.7253 70.936 49.616C70.5947 48.5067 70.2533 47.376 69.912 46.224C69.5707 45.072 69.2933 44.0693 69.08 43.216C68.8667 44.0693 68.568 45.136 68.184 46.416C67.8427 47.6533 67.5013 48.848 67.16 50C66.8613 51.1093 66.6267 51.8987 66.456 52.368L63.192 62.992H75.096ZM110.26 36.304C116.489 36.304 121.076 37.4347 124.02 39.696C127.006 41.9573 128.5 45.392 128.5 50C128.5 52.0907 128.094 53.9253 127.284 55.504C126.516 57.04 125.47 58.3627 124.148 59.472C122.868 60.5387 121.481 61.4133 119.988 62.096L133.428 82H122.676L111.796 64.464H106.612V82H96.9475V36.304H110.26ZM109.556 44.24H106.612V56.592H109.748C112.948 56.592 115.23 56.0587 116.596 54.992C118.004 53.9253 118.708 52.3467 118.708 50.256C118.708 48.08 117.961 46.544 116.468 45.648C114.974 44.7093 112.67 44.24 109.556 44.24ZM152.51 36.304C158.739 36.304 163.326 37.4347 166.27 39.696C169.256 41.9573 170.75 45.392 170.75 50C170.75 52.0907 170.344 53.9253 169.534 55.504C168.766 57.04 167.72 58.3627 166.398 59.472C165.118 60.5387 163.731 61.4133 162.238 62.096L175.678 82H164.926L154.046 64.464H148.862V82H139.198V36.304H152.51ZM151.806 44.24H148.862V56.592H151.998C155.198 56.592 157.48 56.0587 158.846 54.992C160.254 53.9253 160.958 52.3467 160.958 50.256C160.958 48.08 160.211 46.544 158.718 45.648C157.224 44.7093 154.92 44.24 151.806 44.24ZM198.536 82H177.736V76.496L183.304 73.936V44.368L177.736 41.808V36.304H198.536V41.808L192.968 44.368V73.936L198.536 76.496V82ZM246.835 82H234.547L214.643 47.44H214.387C214.472 49.616 214.557 51.792 214.643 53.968C214.771 56.144 214.877 58.32 214.963 60.496V82H206.323V36.304H218.547L238.387 70.544H238.579C238.493 68.4533 238.408 66.3627 238.323 64.272C238.237 62.1813 238.173 60.0693 238.131 57.936V36.304H246.835V82ZM275.473 82H254.673V76.496L260.241 73.936V44.368L254.673 41.808V36.304H275.473V41.808L269.905 44.368V73.936L275.473 76.496V82Z" fill="#550E43"/>
<defs>
<linearGradient id="paint0_linear_512_5511" x1="40.1623" y1="64.239" x2="8.03066" y2="33.4347" gradientUnits="userSpaceOnUse">
<stop stop-color="#D870A9"/>
<stop offset="0.5" stop-color="#C8007F"/>
<stop offset="1" stop-color="#A11880"/>
</linearGradient>
<linearGradient id="paint1_linear_512_5511" x1="-10.479" y1="47.0848" x2="41.4912" y2="62.0085" gradientUnits="userSpaceOnUse">
<stop stop-color="#D870A9"/>
<stop offset="0.5" stop-color="#C8007F"/>
<stop offset="1" stop-color="#A11880"/>
</linearGradient>
<linearGradient id="paint2_linear_512_5511" x1="-10.479" y1="47.0848" x2="41.4912" y2="62.0085" gradientUnits="userSpaceOnUse">
<stop stop-color="#D870A9"/>
<stop offset="0.5" stop-color="#C8007F"/>
<stop offset="1" stop-color="#A11880"/>
</linearGradient>
<linearGradient id="paint3_linear_512_5511" x1="7.49377" y1="28.626" x2="19.7961" y2="28.626" gradientUnits="userSpaceOnUse">
<stop stop-color="#5E4F9C"/>
<stop offset="0.5" stop-color="#312783"/>
<stop offset="1" stop-color="#463A6A"/>
</linearGradient>
<linearGradient id="paint4_linear_512_5511" x1="10.9704" y1="29.6829" x2="16.3193" y2="29.6829" gradientUnits="userSpaceOnUse">
<stop stop-color="#5E4F9C"/>
<stop offset="0.5" stop-color="#312783"/>
<stop offset="1" stop-color="#463A6A"/>
</linearGradient>
<linearGradient id="paint5_linear_512_5511" x1="26.2147" y1="28.626" x2="38.517" y2="28.626" gradientUnits="userSpaceOnUse">
<stop stop-color="#5E4F9C"/>
<stop offset="0.5" stop-color="#312783"/>
<stop offset="1" stop-color="#463A6A"/>
</linearGradient>
<linearGradient id="paint6_linear_512_5511" x1="29.6914" y1="29.6829" x2="35.0402" y2="29.6829" gradientUnits="userSpaceOnUse">
<stop stop-color="#5E4F9C"/>
<stop offset="0.5" stop-color="#312783"/>
<stop offset="1" stop-color="#463A6A"/>
</linearGradient>
<clipPath id="clip0_512_5511">
<rect width="46" height="65" fill="white" transform="translate(0 17)"/>
</clipPath>
</defs>
</svg>
