<svg width="162" height="231" viewBox="0 0 162 231" fill="none" xmlns="http://www.w3.org/2000/svg">
<g clip-path="url(#clip0_512_5493)">
<path d="M143.54 57.0927C142.221 55.5902 140.714 54.2756 139.019 52.961C125.644 41.3171 108.691 34.9317 88.5349 33.6171V36.6219C88.5349 40.1902 85.5209 43.1951 81.9419 43.1951H78.1744C74.5954 43.1951 71.5814 40.1902 71.5814 36.6219V33.8049C59.9023 34.7439 49.3535 37.561 39.5581 42.2561C27.314 48.078 17.5186 56.3415 10.5488 67.0463C3.57907 77.7512 0 89.7707 0 103.105C0 109.49 0.753488 115.312 2.26047 121.134C4.52093 130.149 8.85349 138.412 15.0698 145.737C23.3581 155.502 33.7186 162.263 46.7163 165.644C49.3535 166.395 52.1791 166.959 55.193 167.334C68.9442 169.212 80.0581 168.649 88.7233 165.644L62.3512 205.646L63.4814 205.834L128.281 125.829C139.207 112.495 145.235 99.161 146.553 85.8268C147.684 75.4976 146.742 65.9195 143.54 57.0927ZM108.126 129.21C100.779 136.346 91.7372 139.727 81 139.727C70.2628 139.727 61.2209 136.159 53.686 129.022C47.093 122.824 43.3256 115.312 42.5721 106.673C42.3837 105.359 42.3837 104.232 42.3837 102.917C42.3837 91.2732 46.1512 81.5073 53.4977 74.1829C58.7721 68.9244 64.6116 65.5439 71.393 64.0415C71.393 63.6658 71.2047 63.1024 71.2047 62.7268V58.9707C71.2047 55.4024 74.2186 52.3976 77.7977 52.3976H81.5651C85.1442 52.3976 88.1581 55.4024 88.1581 58.9707V62.7268C88.1581 63.1024 88.1581 63.2902 88.1581 63.6658C93.9977 64.6049 99.0837 66.8585 103.605 70.4268C105.112 71.5536 106.43 72.8683 107.937 74.1829C115.284 81.6951 118.863 91.2732 118.863 102.917C119.24 113.622 115.66 122.261 108.126 129.21Z" fill="url(#paint0_linear_512_5493)"/>
<path d="M162 103.105C162 116.439 157.291 130.337 147.872 144.798L91.3605 231H45.3977L61.9745 205.646L63.1047 205.834L128.281 125.829C139.207 112.495 145.235 99.1609 146.554 85.8268C147.684 75.4975 146.554 65.9195 143.54 57.0927C155.972 69.4878 162 84.8878 162 103.105Z" fill="url(#paint1_linear_512_5493)"/>
<path d="M162 103.105C162 116.439 157.291 130.337 147.872 144.798L91.3605 231H45.3977L61.9745 205.646L63.1047 205.834L128.281 125.829C139.207 112.495 145.235 99.1609 146.554 85.8268C147.684 75.4975 146.554 65.9195 143.54 57.0927C155.972 69.4878 162 84.8878 162 103.105Z" fill="url(#paint2_linear_512_5493)"/>
<path d="M52.7442 80.7561H43.3256C30.893 80.7561 20.7209 70.6146 20.7209 58.2195V22.5366C20.7209 10.1415 30.893 0 43.3256 0H52.7442C65.1768 0 75.3489 10.1415 75.3489 22.5366V58.2195C75.3489 70.6146 65.1768 80.7561 52.7442 80.7561Z" fill="#FEEFFF"/>
<path d="M48.0349 75.122C36.5442 75.122 27.314 65.9195 27.314 54.4634V28.1707C27.314 16.7146 36.5442 7.51221 48.0349 7.51221C59.5256 7.51221 68.7558 16.7146 68.7558 28.1707V54.4634C68.7558 65.9195 59.5256 75.122 48.0349 75.122ZM48.0349 9.39026C37.6744 9.39026 29.1977 17.8415 29.1977 28.1707V54.4634C29.1977 64.7927 37.6744 73.2439 48.0349 73.2439C58.3954 73.2439 66.8721 64.7927 66.8721 54.4634V28.1707C66.8721 17.8415 58.3954 9.39026 48.0349 9.39026Z" fill="black" stroke="url(#paint3_linear_512_5493)" stroke-miterlimit="10"/>
<path d="M48.0349 64.7927C42.7605 64.7927 38.6163 60.661 38.6163 55.4024V34.7439C38.6163 29.4853 42.7605 25.3536 48.0349 25.3536C53.3094 25.3536 57.4535 29.4853 57.4535 34.7439V55.4024C57.4535 60.661 53.3094 64.7927 48.0349 64.7927Z" fill="url(#paint4_linear_512_5493)"/>
<path d="M41.4419 39.4391C45.6033 39.4391 48.9768 36.0757 48.9768 31.9269C48.9768 27.778 45.6033 24.4147 41.4419 24.4147C37.2805 24.4147 33.907 27.778 33.907 31.9269C33.907 36.0757 37.2805 39.4391 41.4419 39.4391Z" fill="white"/>
<path d="M118.674 80.7561H109.256C96.8232 80.7561 86.6511 70.6146 86.6511 58.2195V22.5366C86.6511 10.1415 96.8232 0 109.256 0H118.674C131.107 0 141.279 10.1415 141.279 22.5366V58.2195C141.279 70.6146 131.107 80.7561 118.674 80.7561Z" fill="#FEEFFF"/>
<path d="M113.965 75.122C102.474 75.122 93.2441 65.9195 93.2441 54.4634V28.1707C93.2441 16.7146 102.474 7.51221 113.965 7.51221C125.456 7.51221 134.686 16.7146 134.686 28.1707V54.4634C134.686 65.9195 125.456 75.122 113.965 75.122ZM113.965 9.39026C103.605 9.39026 95.1279 17.8415 95.1279 28.1707V54.4634C95.1279 64.7927 103.605 73.2439 113.965 73.2439C124.326 73.2439 132.802 64.7927 132.802 54.4634V28.1707C132.802 17.8415 124.326 9.39026 113.965 9.39026Z" fill="black" stroke="url(#paint5_linear_512_5493)" stroke-miterlimit="10"/>
<path d="M113.965 64.7927C108.691 64.7927 104.547 60.661 104.547 55.4024V34.7439C104.547 29.4853 108.691 25.3536 113.965 25.3536C119.24 25.3536 123.384 29.4853 123.384 34.7439V55.4024C123.384 60.661 119.24 64.7927 113.965 64.7927Z" fill="url(#paint6_linear_512_5493)"/>
<path d="M107.372 39.4391C111.533 39.4391 114.907 36.0757 114.907 31.9269C114.907 27.778 111.533 24.4147 107.372 24.4147C103.211 24.4147 99.8372 27.778 99.8372 31.9269C99.8372 36.0757 103.211 39.4391 107.372 39.4391Z" fill="white"/>
<path d="M110.026 101.766C109.461 103.268 108.896 104.771 108.33 106.085C107.577 107.588 106.823 108.902 105.882 110.217C100.23 118.48 91.0002 123.739 80.6397 123.739C72.5397 123.739 65.0049 120.359 59.3537 114.724C57.6583 113.034 55.963 110.968 54.6444 108.902C53.3258 106.837 52.3839 104.771 51.4421 102.517C49.7467 97.6341 53.1374 92.3756 58.0351 92.3756L80.6397 92H103.244C107.954 92 111.533 97.0707 110.026 101.766Z" fill="#C1272D"/>
<path d="M107.954 103.456C107.2 104.77 106.447 106.085 105.505 107.4C99.8538 115.1 90.812 120.17 80.4515 120.17C72.3515 120.17 64.8166 116.978 59.3538 111.719C57.6585 110.029 55.9631 108.151 54.6445 106.273C59.9189 100.075 70.4678 95.7559 82.712 95.7559C93.0724 95.7559 102.114 98.7607 107.954 103.456Z" fill="#F15A24"/>
</g>
<defs>
<linearGradient id="paint0_linear_512_5493" x1="141.441" y1="167.88" x2="27.2986" y2="59.4413" gradientUnits="userSpaceOnUse">
<stop stop-color="#D870A9"/>
<stop offset="0.5" stop-color="#C8007F"/>
<stop offset="1" stop-color="#A11880"/>
</linearGradient>
<linearGradient id="paint1_linear_512_5493" x1="-36.9039" y1="106.917" x2="146.373" y2="159.071" gradientUnits="userSpaceOnUse">
<stop stop-color="#D870A9"/>
<stop offset="0.5" stop-color="#C8007F"/>
<stop offset="1" stop-color="#A11880"/>
</linearGradient>
<linearGradient id="paint2_linear_512_5493" x1="-36.9039" y1="106.917" x2="146.373" y2="159.071" gradientUnits="userSpaceOnUse">
<stop stop-color="#D870A9"/>
<stop offset="0.5" stop-color="#C8007F"/>
<stop offset="1" stop-color="#A11880"/>
</linearGradient>
<linearGradient id="paint3_linear_512_5493" x1="26.3909" y1="41.3171" x2="69.7165" y2="41.3171" gradientUnits="userSpaceOnUse">
<stop stop-color="#5E4F9C"/>
<stop offset="0.5" stop-color="#312783"/>
<stop offset="1" stop-color="#463A6A"/>
</linearGradient>
<linearGradient id="paint4_linear_512_5493" x1="38.6352" y1="45.0732" x2="57.4724" y2="45.0732" gradientUnits="userSpaceOnUse">
<stop stop-color="#5E4F9C"/>
<stop offset="0.5" stop-color="#312783"/>
<stop offset="1" stop-color="#463A6A"/>
</linearGradient>
<linearGradient id="paint5_linear_512_5493" x1="92.3211" y1="41.3171" x2="135.647" y2="41.3171" gradientUnits="userSpaceOnUse">
<stop stop-color="#5E4F9C"/>
<stop offset="0.5" stop-color="#312783"/>
<stop offset="1" stop-color="#463A6A"/>
</linearGradient>
<linearGradient id="paint6_linear_512_5493" x1="104.565" y1="45.0732" x2="123.403" y2="45.0732" gradientUnits="userSpaceOnUse">
<stop stop-color="#5E4F9C"/>
<stop offset="0.5" stop-color="#312783"/>
<stop offset="1" stop-color="#463A6A"/>
</linearGradient>
<clipPath id="clip0_512_5493">
<rect width="162" height="231" fill="white"/>
</clipPath>
</defs>
</svg>
